<?xml version="1.0" encoding="iso-8859-1"?>
<!-- Generator: Adobe Illustrator 18.1.1, SVG Export Plug-In . SVG Version: 6.00 Build 0)  -->
<!DOCTYPE svg PUBLIC "-//W3C//DTD SVG 1.1//EN" "http://www.w3.org/Graphics/SVG/1.1/DTD/svg11.dtd">
<svg version="1.1" id="Capa_1" xmlns="http://www.w3.org/2000/svg" xmlns:xlink="http://www.w3.org/1999/xlink" x="0px" y="0px"
	 viewBox="-49 141 512 512" style="enable-background:new -49 141 512 512;" xml:space="preserve">
<path style="fill:#FFFFFF;" d="M428.867,303.133c-17.176-0.036-31.692,12.723-33.86,29.761
	c-2.168,17.039,8.689,33.026,25.327,37.293V397h-68.267c0.105-38.495-15.196-75.431-42.492-102.575
	c-5.364-5.29-11.129-10.159-17.242-14.562V269H411.8c9.421-0.011,17.056-7.645,17.067-17.067v-18.278
	c16.643-4.297,27.494-20.299,25.328-37.35s-16.673-29.832-33.861-29.832c-17.188,0-31.695,12.781-33.861,29.832
	c-2.166,17.051,8.685,33.053,25.328,37.35v18.278H292.333c-9.392,0.013-17.012,7.604-17.059,16.996
	c-18.472-9.802-38.859-15.46-59.741-16.58v-17.482h34.133c9.421-0.011,17.056-7.645,17.067-17.067v-9.745
	c16.643-4.297,27.494-20.299,25.328-37.35s-16.673-29.832-33.861-29.832s-31.695,12.781-33.861,29.832
	c-2.166,17.051,8.685,33.053,25.328,37.35v9.745h-34.133c-9.421,0.011-17.056,7.645-17.067,17.067v17.482
	c-11.575,0.612-23.034,2.609-34.133,5.95V192.2c-0.011-9.421-7.645-17.056-17.067-17.067H60.722
	c-4.297-16.643-20.299-27.494-37.35-25.328s-29.832,16.673-29.832,33.861s12.781,31.695,29.832,33.861
	c17.051,2.166,33.053-8.685,37.35-25.328h86.545v72.687c-37.951,17.085-66.719,49.67-78.968,89.446H-6.333v-43.878
	c16.643-4.297,27.494-20.299,25.328-37.35c-2.166-17.051-16.673-29.832-33.861-29.832s-31.695,12.781-33.861,29.832
	c-2.166,17.051,8.685,33.053,25.328,37.35v43.878c0.011,9.421,7.645,17.056,17.067,17.067h70.621
	c-1.534,8.448-2.322,17.014-2.355,25.6H44.867c-9.421,0.011-17.056,7.645-17.067,17.067v119.467h-9.745
	c-4.297-16.643-20.299-27.494-37.35-25.328c-17.051,2.166-29.832,16.673-29.832,33.861s12.781,31.695,29.832,33.861
	c17.051,2.166,33.053-8.685,37.35-25.328H27.8c9.421-0.011,17.056-7.646,17.067-17.067V414.067h18.161
	c5.87,50.504,37.865,94.2,84.239,115.046v81.22H94.855c-4.297-16.643-20.299-27.494-37.35-25.328
	c-17.051,2.166-29.832,16.673-29.832,33.861s12.781,31.695,29.832,33.861c17.051,2.166,33.053-8.685,37.35-25.328h52.412
	c9.421-0.011,17.056-7.645,17.067-17.067v-74.633c11.099,3.341,22.559,5.338,34.133,5.95v17.482
	c0.011,9.421,7.645,17.056,17.067,17.067h59.733v9.745c-16.643,4.297-27.494,20.299-25.328,37.35
	c2.166,17.051,16.673,29.832,33.861,29.832s31.695-12.781,33.861-29.832c2.166-17.051-8.685-33.053-25.328-37.35V576.2
	c-0.011-9.421-7.645-17.056-17.067-17.067h-59.733v-17.482c35.466-1.937,68.962-16.924,94.042-42.076
	c10.142-10.119,18.735-21.68,25.5-34.308h68.192v86.545c-16.643,4.297-27.494,20.299-25.328,37.35
	c2.166,17.051,16.673,29.832,33.861,29.832s31.695-12.781,33.861-29.832s-8.685-33.053-25.328-37.35v-86.545
	c-0.011-9.421-7.645-17.056-17.067-17.067H342.65c4.157-10.995,6.952-22.458,8.322-34.133h69.361
	c9.421-0.011,17.056-7.645,17.067-17.067v-26.812c16.638-4.267,27.495-20.255,25.327-37.293S446.043,303.098,428.867,303.133z
	 M403.267,200.733c0-9.426,7.641-17.067,17.067-17.067c9.426,0,17.067,7.641,17.067,17.067s-7.641,17.067-17.067,17.067
	C410.912,217.789,403.277,210.155,403.267,200.733z M241.133,175.133c0-9.426,7.641-17.067,17.067-17.067
	c9.426,0,17.067,7.641,17.067,17.067S267.626,192.2,258.2,192.2C248.779,192.189,241.144,184.555,241.133,175.133z M27.8,200.733
	c-9.426,0-17.067-7.641-17.067-17.067S18.374,166.6,27.8,166.6s17.067,7.641,17.067,17.067
	C44.856,193.088,37.221,200.723,27.8,200.733z M-31.933,277.533c0-9.426,7.641-17.067,17.067-17.067S2.2,268.108,2.2,277.533
	c0,9.426-7.641,17.067-17.067,17.067C-24.288,294.589-31.923,286.955-31.933,277.533z M-14.867,559.133
	c-9.426,0-17.067-7.641-17.067-17.067c0-9.426,7.641-17.067,17.067-17.067S2.2,532.641,2.2,542.067
	C2.189,551.488-5.445,559.123-14.867,559.133z M61.933,635.933c-9.426,0-17.067-7.641-17.067-17.067S52.508,601.8,61.933,601.8
	S79,609.441,79,618.867C78.989,628.288,71.355,635.923,61.933,635.933z M300.867,618.867c0,9.426-7.641,17.067-17.067,17.067
	s-17.067-7.641-17.067-17.067S274.374,601.8,283.8,601.8C293.221,601.811,300.856,609.445,300.867,618.867z M428.867,584.733
	c0,9.426-7.641,17.067-17.067,17.067s-17.067-7.641-17.067-17.067s7.641-17.067,17.067-17.067
	C421.221,567.677,428.856,575.312,428.867,584.733z M297.508,487.508c-43.179,43.176-110.844,49.838-161.614,15.913
	s-70.506-98.99-47.138-155.404s83.332-88.464,143.221-76.551S335,335.938,335,397C335.092,430.966,321.592,463.557,297.508,487.508z
	 M428.867,354.333c-9.426,0-17.067-7.641-17.067-17.067c0-9.426,7.641-17.067,17.067-17.067c9.426,0,17.067,7.641,17.067,17.067
	C445.923,346.688,438.288,354.323,428.867,354.333z"/>
<g>
	<g>
		<path style="fill:#0FA3B1;" d="M169.386,419.711l-24.338,15.873c-2.675-2.872-6.224-4.98-10.348-5.848
			c-10.649-2.242-21.137,4.598-23.378,15.247c-2.242,10.649,4.598,21.137,15.247,23.378s21.137-4.598,23.378-15.247
			c0.868-4.125,0.369-8.223-1.181-11.83l24.338-15.873c1.574-1.027,2.018-3.135,0.991-4.709
			C173.069,419.128,170.96,418.684,169.386,419.711z M127.971,461.702c-6.977-1.469-11.458-8.34-9.99-15.317
			c1.469-6.977,8.34-11.458,15.317-9.99c6.977,1.469,11.458,8.34,9.99,15.317S134.948,463.171,127.971,461.702z"/>
		<path style="fill:#0FA3B1;" d="M181.519,412.988c-0.876-0.184-1.81-0.009-2.56,0.48c-0.75,0.489-1.287,1.273-1.471,2.149
			c-0.184,0.876-0.009,1.81,0.48,2.56s1.273,1.287,2.149,1.471s1.81,0.009,2.56-0.48c0.75-0.489,1.287-1.273,1.471-2.149
			c0.184-0.876,0.009-1.81-0.48-2.56C183.179,413.709,182.395,413.172,181.519,412.988z"/>
	</g>
	
		<line style="fill:none;stroke:#0FA3B1;stroke-width:7.6273;stroke-linecap:round;stroke-miterlimit:10;" x1="147.194" y1="348.57" x2="129.567" y2="429.363"/>
	
		<line style="fill:none;stroke:#FF971A;stroke-width:7.6273;stroke-linecap:round;stroke-miterlimit:10;" x1="231.046" y1="355.297" x2="266.563" y2="368.181"/>
	
		<line style="fill:none;stroke:#0FA3B1;stroke-width:7.6273;stroke-linecap:round;stroke-miterlimit:10;" x1="141.692" y1="461.03" x2="235.258" y2="467.163"/>
	<g>
		<path style="fill:#FF971A;" d="M263.477,445.717c-5.595-1.178-11.154-0.387-15.959,1.896l-20.602-31.589
			c4.026-3.477,6.991-8.245,8.169-13.841c0.562-2.672,0.671-5.334,0.388-7.911l29.6-7.368c2.489,5.594,7.529,9.963,13.966,11.318
			c10.649,2.242,21.137-4.598,23.378-15.247c2.242-10.649-4.598-21.137-15.247-23.378c-10.649-2.242-21.137,4.598-23.378,15.247
			c-0.387,1.839-0.497,3.671-0.37,5.459l-29.599,7.368c-2.627-6.556-7.962-11.905-14.91-14.382l1.863-8.852
			c4.923-0.452,9.199-4.055,10.269-9.139c1.314-6.243-2.695-12.39-8.938-13.705c-6.243-1.314-12.39,2.695-13.705,8.938
			c-1.07,5.084,1.391,10.105,5.714,12.503l-1.863,8.852c-4.431-0.322-8.746,0.544-12.581,2.366l-16.994-26.056
			c6.665-5.624,10.397-14.149,9.882-22.982c-0.11-1.876-1.719-3.309-3.595-3.199c-1.876,0.109-3.308,1.719-3.199,3.595
			c0.438,7.517-3.187,14.738-9.465,18.871c-0.026,0.016-0.053,0.029-0.078,0.046c-0.023,0.015-0.043,0.032-0.065,0.047
			c-9.736,6.298-22.787,3.532-29.127-6.189c-6.355-9.744-3.598-22.841,6.146-29.196c6.162-4.019,13.825-4.553,20.497-1.427
			c1.701,0.796,3.727,0.064,4.525-1.638c0.797-1.702,0.064-3.728-1.638-4.525c-8.821-4.131-18.952-3.426-27.102,1.889
			c-12.887,8.405-16.534,25.727-8.129,38.615c4.202,6.444,10.634,10.577,17.626,12.049c5.944,1.251,12.291,0.571,18.02-2.241
			l16.995,26.058c-4.026,3.477-6.99,8.245-8.168,13.839c-2.86,13.587,5.867,26.968,19.454,29.828
			c5.595,1.178,11.153,0.387,15.958-1.895l20.603,31.589c-4.026,3.477-6.991,8.245-8.168,13.84
			c-2.86,13.587,5.867,26.968,19.454,29.828s26.968-5.867,29.828-19.454C285.791,461.957,277.064,448.577,263.477,445.717z
			 M285.768,366.255c6.977,1.469,11.458,8.34,9.99,15.317s-8.34,11.458-15.317,9.99c-6.977-1.469-11.458-8.34-9.99-15.317
			S278.791,364.786,285.768,366.255z M220.706,348.251c2.571,0.541,4.222,3.072,3.68,5.643s-3.072,4.222-5.643,3.68
			s-4.222-3.072-3.68-5.643S218.135,347.71,220.706,348.251z M192.463,393.21c2.087-9.915,11.851-16.283,21.766-14.196
			c9.915,2.087,16.283,11.851,14.196,21.766c-2.087,9.915-11.851,16.283-21.766,14.196
			C196.744,412.889,190.376,403.125,192.463,393.21z M254.505,488.339c-9.915-2.087-16.283-11.851-14.196-21.766
			s11.851-16.283,21.766-14.196c9.915,2.087,16.283,11.851,14.196,21.766S264.42,490.426,254.505,488.339z"/>
		<path style="fill:#FF971A;" d="M182.446,315.447c0.513,0.794,1.301,1.304,2.158,1.484c0.847,0.178,1.761,0.036,2.546-0.471
			c1.579-1.019,2.033-3.125,1.014-4.704l-0.094-0.145c-1.03-1.571-3.139-2.01-4.711-0.98c-1.572,1.031-2.01,3.14-0.98,4.711
			L182.446,315.447z"/>
	</g>
</g>
</svg>
