<?xml version="1.0" encoding="iso-8859-1"?>
<!-- Generator: Adobe Illustrator 18.1.1, SVG Export Plug-In . SVG Version: 6.00 Build 0)  -->
<!DOCTYPE svg PUBLIC "-//W3C//DTD SVG 1.1//EN" "http://www.w3.org/Graphics/SVG/1.1/DTD/svg11.dtd">
<svg version="1.1" id="Layer_1" xmlns="http://www.w3.org/2000/svg" xmlns:xlink="http://www.w3.org/1999/xlink" x="0px" y="0px"
	 viewBox="0 0 505.656 112.88" style="enable-background:new 0 0 505.656 112.88;" xml:space="preserve">
<g>
	<g>
		<g>
			<g>
				<path style="fill:#FF971A;" d="M39.017,59.851c0.359,0.276,0.824,0.401,1.273,0.342c0.449-0.059,0.866-0.299,1.143-0.658
					c0.276-0.359,0.401-0.824,0.342-1.273c-0.059-0.449-0.299-0.866-0.658-1.143c-0.359-0.276-0.824-0.401-1.273-0.342
					c-0.449,0.059-0.866,0.299-1.143,0.658c-0.276,0.359-0.401,0.824-0.342,1.273C38.418,59.157,38.658,59.574,39.017,59.851z"/>
				<path style="fill:#FF971A;" d="M54.556,92.42L16.698,69.789c0.43-0.391,0.845-0.807,1.212-1.284
					c1.301-1.692,1.972-3.671,2.056-5.657l14.587-1.905c0.943-0.123,1.608-0.988,1.485-1.932c-0.123-0.943-0.988-1.608-1.931-1.485
					l-14.587,1.905c-0.591-1.897-1.748-3.638-3.439-4.938c-0.161-0.124-0.342-0.202-0.508-0.315l26.385-33.795
					c0.697-0.892,0.538-2.179-0.354-2.875c-0.89-0.694-2.179-0.538-2.875,0.354l-27.123,34.74c-3.513-0.571-7.22,0.707-9.537,3.721
					c-3.359,4.368-2.538,10.653,1.83,14.012c2.73,2.1,6.21,2.566,9.256,1.553c0.107,0.108,0.202,0.226,0.339,0.308l39.161,23.409
					c0.035,0.021,0.071,0.042,0.107,0.06c0.863,0.442,1.932,0.143,2.437-0.701C55.724,94.085,55.436,92.945,54.556,92.42z
					 M5.998,67.603c-2.861-2.2-3.399-6.319-1.199-9.18c2.201-2.862,6.319-3.399,9.18-1.199c2.861,2.201,3.399,6.319,1.199,9.18
					C12.977,69.266,8.859,69.803,5.998,67.603z"/>
			</g>
		</g>
		<g>
			<path style="fill:#0FA3B1;" d="M101.038,55.93c-2.769-2.13-6.306-2.567-9.382-1.497c-0.092-0.243-0.229-0.472-0.422-0.669
				l-13.38-13.67c-0.154-0.156-0.337-0.26-0.522-0.353c0.661-2.253-0.063-4.781-2.033-6.296c-2.56-1.969-6.245-1.488-8.214,1.073
				c-1.604,2.085-1.582,4.916-0.135,6.959l-2.792,3.631c-1.951-1.119-4.11-1.67-6.26-1.68l-2.039-15.617
				c4.275-1.105,7.848-4.176,9.55-8.319c0.362-0.88-0.059-1.887-0.939-2.248c-0.88-0.362-1.887,0.059-2.248,0.939
				c-1.449,3.526-4.687,6.026-8.458,6.535c-0.015,0.002-0.03,0.002-0.046,0.004c-0.013,0.002-0.027,0.005-0.04,0.007
				c-5.824,0.738-11.173-3.386-11.934-9.213c-0.763-5.84,3.368-11.212,9.208-11.974c3.694-0.482,7.307,0.955,9.666,3.845
				c0.601,0.736,1.687,0.847,2.424,0.245c0.737-0.602,0.847-1.687,0.245-2.424c-3.119-3.82-7.897-5.72-12.782-5.082
				C42.782,1.13,37.318,8.235,38.327,15.959c0.504,3.862,2.533,7.159,5.4,9.364c2.438,1.875,5.483,2.956,8.714,2.93l2.04,15.618
				c-2.6,0.704-4.998,2.229-6.763,4.524c-4.285,5.572-3.238,13.592,2.335,17.878c2.295,1.765,5.004,2.623,7.697,2.635l2.472,18.934
				c-2.6,0.703-4.998,2.229-6.763,4.524c-4.285,5.573-3.238,13.592,2.334,17.878c5.573,4.285,13.592,3.238,17.878-2.335
				c4.285-5.573,3.238-13.592-2.335-17.877c-2.295-1.765-5.005-2.623-7.698-2.635l-2.472-18.933c2.6-0.704,4.999-2.229,6.764-4.524
				c0.843-1.096,1.476-2.287,1.912-3.525l15.123,3.13c-0.091,3.099,1.251,6.198,3.89,8.228c4.368,3.359,10.654,2.538,14.012-1.83
				C106.227,65.574,105.406,59.288,101.038,55.93z M69.236,92.762c4.066,3.127,4.831,8.979,1.704,13.046
				c-3.127,4.066-8.979,4.831-13.046,1.703c-4.066-3.127-4.831-8.979-1.704-13.046C59.318,90.399,65.17,89.635,69.236,92.762z
				 M69.816,36.616c0.811-1.054,2.328-1.252,3.382-0.442c1.054,0.811,1.252,2.328,0.442,3.382c-0.811,1.054-2.328,1.252-3.382,0.442
				C69.203,39.187,69.005,37.67,69.816,36.616z M65.199,61.837c-3.127,4.067-8.979,4.831-13.046,1.704s-4.831-8.979-1.704-13.046
				c3.127-4.067,8.979-4.831,13.046-1.704C67.562,51.919,68.326,57.771,65.199,61.837z M85.66,60.169l-15.122-3.13
				c0.239-3.568-1.022-7.179-3.649-9.833l2.792-3.631c1.821,0.678,3.874,0.393,5.454-0.739l13.224,13.511
				c-0.479,0.421-0.929,0.888-1.333,1.412C86.446,58.514,85.994,59.326,85.66,60.169z M100.137,67.841
				c-2.201,2.862-6.319,3.399-9.18,1.199c-2.862-2.201-3.399-6.319-1.199-9.18c2.201-2.862,6.319-3.399,9.18-1.199
				C101.799,60.861,102.337,64.98,100.137,67.841z"/>
			<path style="fill:#0FA3B1;" d="M62.935,12.813c0.06,0.475,0.308,0.88,0.659,1.151c0.347,0.267,0.796,0.403,1.265,0.344
				c0.944-0.119,1.613-0.98,1.494-1.924l-0.011-0.087c-0.126-0.943-0.992-1.606-1.935-1.481c-0.943,0.125-1.606,0.992-1.481,1.935
				L62.935,12.813z"/>
		</g>
	</g>
	<g>
		<g>
			<path style="fill:#0FA3B1;" d="M150.283,78.118c-0.545-1.306-1.266-2.965-2.163-4.979c-0.897-2.013-1.864-4.189-2.897-6.529
				c-1.035-2.339-2.137-4.747-3.307-7.224c-1.17-2.476-2.271-4.815-3.305-7.02c-1.035-2.204-2-4.176-2.898-5.917
				c-0.896-1.741-1.619-3.074-2.162-4c-0.6,6.421-1.09,13.373-1.469,20.854c-0.382,7.482-0.709,15.032-0.98,22.649h-7.754
				c0.217-4.897,0.462-9.835,0.734-14.814c0.271-4.979,0.584-9.876,0.939-14.691c0.354-4.815,0.734-9.509,1.143-14.08
				s0.857-8.896,1.347-12.978h6.938c1.47,2.395,3.047,5.224,4.734,8.488c1.686,3.265,3.373,6.68,5.06,10.244
				c1.687,3.564,3.319,7.129,4.898,10.692c1.577,3.564,3.02,6.815,4.325,9.754c1.306-2.938,2.747-6.189,4.326-9.754
				c1.577-3.563,3.21-7.128,4.897-10.692c1.686-3.563,3.373-6.979,5.061-10.244c1.686-3.265,3.265-6.093,4.734-8.488h6.938
				c1.849,18.229,3.236,37.083,4.162,56.563h-7.754c-0.273-7.617-0.6-15.167-0.979-22.649c-0.382-7.481-0.871-14.434-1.47-20.854
				c-0.544,0.926-1.265,2.259-2.162,4c-0.898,1.742-1.865,3.713-2.898,5.917s-2.135,4.544-3.305,7.02
				c-1.171,2.477-2.273,4.885-3.306,7.224c-1.034,2.34-2,4.517-2.897,6.529c-0.898,2.014-1.62,3.673-2.163,4.979H150.283z"/>
			<path style="fill:#0FA3B1;" d="M190.521,93.871c0.598,0.271,1.373,0.53,2.326,0.775c0.951,0.245,1.89,0.367,2.815,0.367
				c2.992,0,5.332-0.667,7.02-1.999c1.687-1.334,3.21-3.497,4.571-6.489c-3.429-6.529-6.626-13.453-9.592-20.772
				c-2.966-7.317-5.428-14.732-7.386-22.242h8.161c0.599,2.449,1.319,5.088,2.164,7.917c0.843,2.83,1.781,5.741,2.815,8.733
				c1.033,2.993,2.149,5.986,3.347,8.979c1.196,2.993,2.449,5.876,3.754,8.651c2.068-5.714,3.863-11.372,5.388-16.978
				c1.522-5.604,2.965-11.372,4.325-17.303h7.836c-1.959,7.999-4.136,15.685-6.529,23.058c-2.396,7.374-4.979,14.271-7.754,20.69
				c-1.09,2.449-2.219,4.557-3.388,6.326c-1.171,1.768-2.462,3.224-3.877,4.366s-3.007,1.986-4.774,2.53
				c-1.77,0.544-3.77,0.816-6,0.816c-0.599,0-1.224-0.041-1.877-0.122c-0.652-0.082-1.293-0.191-1.918-0.327
				c-0.626-0.136-1.197-0.285-1.714-0.448c-0.518-0.164-0.886-0.3-1.103-0.408L190.521,93.871z"/>
			<path style="fill:#0FA3B1;" d="M236.554,85.954V29.391h34.525v6.774h-26.608V52.98h23.67v6.611h-23.67V79.18h28.649v6.774
				H236.554z"/>
			<path style="fill:#0FA3B1;" d="M288.63,43.512h16.079v6.367H288.63v19.589c0,2.122,0.163,3.877,0.489,5.265
				c0.327,1.388,0.816,2.477,1.47,3.265c0.652,0.789,1.469,1.347,2.448,1.673c0.979,0.327,2.122,0.49,3.428,0.49
				c2.286,0,4.122-0.258,5.51-0.775c1.388-0.517,2.354-0.884,2.897-1.102l1.47,6.284c-0.763,0.382-2.096,0.857-4,1.429
				c-1.905,0.571-4.081,0.856-6.529,0.856c-2.885,0-5.265-0.367-7.142-1.102c-1.878-0.734-3.388-1.836-4.53-3.306
				c-1.143-1.469-1.946-3.277-2.408-5.428c-0.463-2.148-0.693-4.639-0.693-7.469V31.677l7.591-1.306V43.512z"/>
			<path style="fill:#0FA3B1;" d="M314.339,85.954V23.923l7.591-1.306v21.711c1.415-0.543,2.925-0.965,4.53-1.265
				c1.604-0.298,3.196-0.449,4.774-0.449c3.374,0,6.176,0.477,8.407,1.429c2.23,0.953,4.013,2.285,5.347,3.999
				c1.332,1.714,2.271,3.769,2.815,6.163c0.543,2.395,0.816,5.033,0.816,7.917v23.833h-7.591V63.753c0-2.611-0.178-4.842-0.53-6.692
				c-0.354-1.85-0.939-3.347-1.755-4.489c-0.816-1.143-1.905-1.972-3.265-2.489c-1.361-0.517-3.049-0.775-5.061-0.775
				c-0.816,0-1.661,0.055-2.53,0.163c-0.871,0.109-1.702,0.232-2.49,0.367c-0.789,0.137-1.497,0.286-2.122,0.449
				c-0.626,0.163-1.075,0.3-1.347,0.408v35.26H314.339z"/>
			<path style="fill:#0FA3B1;" d="M358.578,64.815c0-3.755,0.543-7.032,1.632-9.835c1.088-2.803,2.53-5.129,4.326-6.979
				c1.796-1.849,3.863-3.236,6.203-4.162c2.339-0.925,4.734-1.388,7.183-1.388c5.714,0,10.093,1.783,13.141,5.346
				c3.047,3.565,4.571,8.993,4.571,16.284c0,0.326,0,0.748,0,1.265c0,0.518-0.028,0.993-0.082,1.429h-29.057
				c0.326,4.407,1.604,7.754,3.836,10.039c2.23,2.285,5.714,3.428,10.447,3.428c2.666,0,4.91-0.23,6.734-0.693
				c1.822-0.462,3.195-0.91,4.121-1.347l1.062,6.366c-0.926,0.49-2.544,1.008-4.856,1.551c-2.313,0.543-4.938,0.816-7.877,0.816
				c-3.7,0-6.896-0.559-9.59-1.673c-2.693-1.115-4.911-2.653-6.652-4.612c-1.742-1.959-3.034-4.285-3.877-6.979
				C358.999,70.977,358.578,68.026,358.578,64.815z M387.717,60.652c0.053-3.428-0.804-6.244-2.571-8.447
				c-1.77-2.204-4.204-3.306-7.306-3.306c-1.742,0-3.278,0.341-4.611,1.021c-1.334,0.681-2.463,1.564-3.387,2.652
				c-0.927,1.089-1.646,2.34-2.163,3.755c-0.519,1.415-0.857,2.856-1.021,4.325H387.717z"/>
			<path style="fill:#0FA3B1;" d="M422.241,42.614c0.652,0,1.4,0.041,2.244,0.123c0.843,0.082,1.673,0.191,2.489,0.327
				c0.816,0.136,1.563,0.273,2.245,0.408c0.68,0.136,1.184,0.259,1.51,0.367l-1.306,6.611c-0.6-0.217-1.592-0.476-2.979-0.775
				c-1.388-0.299-3.171-0.449-5.346-0.449c-1.416,0-2.816,0.15-4.204,0.449c-1.388,0.3-2.299,0.504-2.734,0.612v35.668h-7.591
				V45.307c1.796-0.653,4.026-1.265,6.693-1.836C415.928,42.899,418.921,42.614,422.241,42.614z"/>
			<path style="fill:#0B7A85;" d="M441.829,35.839c-1.36,0-2.518-0.449-3.469-1.347c-0.953-0.898-1.429-2.108-1.429-3.632
				c0-1.522,0.476-2.734,1.429-3.632c0.951-0.898,2.108-1.347,3.469-1.347c1.359,0,2.517,0.449,3.469,1.347
				c0.951,0.898,1.429,2.109,1.429,3.632c0,1.524-0.478,2.734-1.429,3.632C444.346,35.39,443.188,35.839,441.829,35.839z
				 M445.665,85.954h-7.591V43.512h7.591V85.954z"/>
			<path style="fill:#0B7A85;" d="M505.656,57.632c0,4.897-0.763,9.155-2.286,12.773c-1.523,3.619-3.673,6.611-6.447,8.979
				c-2.775,2.367-6.095,4.136-9.958,5.306c-3.864,1.17-8.108,1.754-12.732,1.754c-2.286,0-4.804-0.095-7.551-0.285
				c-2.748-0.191-5.237-0.558-7.468-1.102v-54.85c2.23-0.543,4.72-0.911,7.468-1.102c2.747-0.19,5.265-0.286,7.551-0.286
				c4.624,0,8.868,0.585,12.732,1.755c3.863,1.171,7.183,2.938,9.958,5.306c2.774,2.367,4.924,5.36,6.447,8.978
				C504.893,48.478,505.656,52.735,505.656,57.632z M474.885,79.506c7.509,0,13.113-1.918,16.814-5.754
				c3.699-3.836,5.55-9.209,5.55-16.12c0-6.91-1.851-12.284-5.55-16.12c-3.701-3.836-9.306-5.754-16.814-5.754
				c-2.231,0-3.958,0.028-5.183,0.082c-1.225,0.055-2.081,0.11-2.571,0.163v43.259c0.49,0.056,1.347,0.11,2.571,0.164
				C470.927,79.48,472.653,79.506,474.885,79.506z"/>
		</g>
	</g>
</g>
<g>
</g>
<g>
</g>
<g>
</g>
<g>
</g>
<g>
</g>
<g>
</g>
<g>
</g>
<g>
</g>
<g>
</g>
<g>
</g>
<g>
</g>
<g>
</g>
<g>
</g>
<g>
</g>
<g>
</g>
</svg>
