<?xml version="1.0" encoding="iso-8859-1"?>
<!-- Generator: Adobe Illustrator 18.1.1, SVG Export Plug-In . SVG Version: 6.00 Build 0)  -->
<!DOCTYPE svg PUBLIC "-//W3C//DTD SVG 1.1//EN" "http://www.w3.org/Graphics/SVG/1.1/DTD/svg11.dtd">
<svg version="1.1" id="Capa_1" xmlns="http://www.w3.org/2000/svg" xmlns:xlink="http://www.w3.org/1999/xlink" x="0px" y="0px"
	 viewBox="-49 141 512 512" style="enable-background:new -49 141 512 512;" xml:space="preserve">
<path style="fill:#FF971A;" d="M291.848,524.832L215,601.688V381c0-4.418-3.582-8-8-8s-8,3.582-8,8v220.688l-76.848-76.856
	c-3.126-3.126-8.194-3.126-11.32,0s-3.126,8.194,0,11.32l90.504,90.496c3.12,3.128,8.186,3.135,11.314,0.014
	c0.005-0.005,0.01-0.01,0.014-0.014l90.504-90.496c3.126-3.126,3.126-8.194,0-11.32
	C300.042,521.706,294.974,521.706,291.848,524.832z"/>
<path style="fill:#0FA3B1;" d="M423,213H-9c-13.255,0-24,10.745-24,24v288c0,13.255,10.745,24,24,24h80c4.418,0,8-3.582,8-8
	s-3.582-8-8-8H-9c-4.418,0-8-3.582-8-8V309h448v216c0,4.418-3.582,8-8,8h-80c-4.418,0-8,3.582-8,8s3.582,8,8,8h80
	c13.255,0,24-10.745,24-24V237C447,223.745,436.255,213,423,213z M-9,229h432c4.418,0,8,3.582,8,8v40H-17v-40
	C-17,232.582-13.418,229-9,229z"/>
<path style="fill:#0FA3B1;" d="M207,333c0-4.418-3.582-8-8-8H23c-4.418,0-8,3.582-8,8s3.582,8,8,8h176
	C203.418,341,207,337.418,207,333z"/>
</svg>
